<mxfile host="app.diagrams.net" agent="Mozilla/5.0 (Windows NT 10.0; Win64; x64) AppleWebKit/537.36 (KHTML, like Gecko) Chrome/141.0.0.0 Safari/537.36" version="28.2.5">
  <diagram name="Page-1" id="n1vG-a2Mxv8iqi264H9m">
    <mxGraphModel dx="1042" dy="527" grid="1" gridSize="10" guides="1" tooltips="1" connect="1" arrows="1" fold="1" page="1" pageScale="1" pageWidth="827" pageHeight="1169" math="0" shadow="0">
      <root>
        <mxCell id="0" />
        <mxCell id="1" parent="0" />
        <mxCell id="DVobUFfQzRsEQ04qU32B-1" value="+" style="rounded=0;whiteSpace=wrap;html=1;" vertex="1" parent="1">
          <mxGeometry x="560" y="287.5" width="50" height="90" as="geometry" />
        </mxCell>
        <mxCell id="DVobUFfQzRsEQ04qU32B-2" value="" style="group;rotation=-90;" vertex="1" connectable="0" parent="1">
          <mxGeometry x="970" y="332.5" width="90" height="70" as="geometry" />
        </mxCell>
        <mxCell id="DVobUFfQzRsEQ04qU32B-3" value="" style="rounded=0;whiteSpace=wrap;html=1;rotation=-90;" vertex="1" parent="DVobUFfQzRsEQ04qU32B-2">
          <mxGeometry y="-20" width="90" height="50" as="geometry" />
        </mxCell>
        <mxCell id="DVobUFfQzRsEQ04qU32B-4" value="" style="group;rotation=-90;" vertex="1" connectable="0" parent="DVobUFfQzRsEQ04qU32B-2">
          <mxGeometry x="30" y="-10" width="26" height="20" as="geometry" />
        </mxCell>
        <mxCell id="DVobUFfQzRsEQ04qU32B-5" value="" style="endArrow=none;html=1;rounded=0;" edge="1" parent="DVobUFfQzRsEQ04qU32B-4">
          <mxGeometry width="50" height="50" relative="1" as="geometry">
            <mxPoint x="13" y="23" as="sourcePoint" />
            <mxPoint x="13" y="-3" as="targetPoint" />
          </mxGeometry>
        </mxCell>
        <mxCell id="DVobUFfQzRsEQ04qU32B-6" value="" style="endArrow=none;html=1;rounded=0;" edge="1" parent="DVobUFfQzRsEQ04qU32B-4">
          <mxGeometry width="50" height="50" relative="1" as="geometry">
            <mxPoint x="13" y="23" as="sourcePoint" />
            <mxPoint x="3" y="23" as="targetPoint" />
          </mxGeometry>
        </mxCell>
        <mxCell id="DVobUFfQzRsEQ04qU32B-7" value="" style="endArrow=none;html=1;rounded=0;" edge="1" parent="DVobUFfQzRsEQ04qU32B-4">
          <mxGeometry width="50" height="50" relative="1" as="geometry">
            <mxPoint x="23" y="-3" as="sourcePoint" />
            <mxPoint x="13" y="-3" as="targetPoint" />
          </mxGeometry>
        </mxCell>
        <mxCell id="DVobUFfQzRsEQ04qU32B-8" value="" style="endArrow=none;html=1;rounded=0;" edge="1" parent="DVobUFfQzRsEQ04qU32B-4">
          <mxGeometry width="50" height="50" relative="1" as="geometry">
            <mxPoint x="13" y="3" as="sourcePoint" />
            <mxPoint x="3" y="13" as="targetPoint" />
            <Array as="points">
              <mxPoint x="13" y="3" />
            </Array>
          </mxGeometry>
        </mxCell>
        <mxCell id="DVobUFfQzRsEQ04qU32B-9" value="" style="endArrow=none;html=1;rounded=0;" edge="1" parent="DVobUFfQzRsEQ04qU32B-4">
          <mxGeometry width="50" height="50" relative="1" as="geometry">
            <mxPoint x="13" y="3" as="sourcePoint" />
            <mxPoint x="23" y="13" as="targetPoint" />
          </mxGeometry>
        </mxCell>
        <mxCell id="DVobUFfQzRsEQ04qU32B-10" value="" style="triangle;whiteSpace=wrap;html=1;rotation=-90;" vertex="1" parent="DVobUFfQzRsEQ04qU32B-2">
          <mxGeometry x="37.5" y="17.5" width="15" height="50" as="geometry" />
        </mxCell>
        <mxCell id="DVobUFfQzRsEQ04qU32B-11" value="" style="endArrow=none;html=1;rounded=0;entryX=0.004;entryY=0.779;entryDx=0;entryDy=0;entryPerimeter=0;" edge="1" parent="1" target="DVobUFfQzRsEQ04qU32B-1">
          <mxGeometry width="50" height="50" relative="1" as="geometry">
            <mxPoint x="520" y="357.5" as="sourcePoint" />
            <mxPoint x="530" y="407.5" as="targetPoint" />
          </mxGeometry>
        </mxCell>
        <mxCell id="DVobUFfQzRsEQ04qU32B-12" value="" style="verticalLabelPosition=bottom;shadow=0;dashed=0;align=center;html=1;verticalAlign=top;shape=mxgraph.electrical.opto_electronics.7_segment_display;pointerEvents=1;" vertex="1" parent="1">
          <mxGeometry x="1330" y="235" width="30" height="40" as="geometry" />
        </mxCell>
        <mxCell id="DVobUFfQzRsEQ04qU32B-13" value="" style="verticalLabelPosition=bottom;shadow=0;dashed=0;align=center;html=1;verticalAlign=top;shape=mxgraph.electrical.opto_electronics.7_segment_display;pointerEvents=1;" vertex="1" parent="1">
          <mxGeometry x="1420" y="235" width="30" height="40" as="geometry" />
        </mxCell>
        <mxCell id="DVobUFfQzRsEQ04qU32B-14" value="" style="verticalLabelPosition=bottom;shadow=0;dashed=0;align=center;html=1;verticalAlign=top;shape=mxgraph.electrical.opto_electronics.7_segment_display;pointerEvents=1;" vertex="1" parent="1">
          <mxGeometry x="1460" y="235" width="30" height="40" as="geometry" />
        </mxCell>
        <mxCell id="DVobUFfQzRsEQ04qU32B-15" value="1" style="text;html=1;align=center;verticalAlign=middle;whiteSpace=wrap;rounded=0;" vertex="1" parent="1">
          <mxGeometry x="500" y="337.5" width="20" height="30" as="geometry" />
        </mxCell>
        <mxCell id="DVobUFfQzRsEQ04qU32B-16" value="" style="endArrow=none;html=1;rounded=0;entryX=0;entryY=0.5;entryDx=0;entryDy=0;exitX=1;exitY=0.5;exitDx=0;exitDy=0;" edge="1" parent="1" source="DVobUFfQzRsEQ04qU32B-17" target="DVobUFfQzRsEQ04qU32B-10">
          <mxGeometry width="50" height="50" relative="1" as="geometry">
            <mxPoint x="580" y="397.5" as="sourcePoint" />
            <mxPoint x="630" y="437.5" as="targetPoint" />
            <Array as="points">
              <mxPoint x="690" y="397.5" />
              <mxPoint x="825" y="397.5" />
              <mxPoint x="1015" y="397.5" />
            </Array>
          </mxGeometry>
        </mxCell>
        <mxCell id="DVobUFfQzRsEQ04qU32B-17" value="" style="rounded=0;whiteSpace=wrap;html=1;" vertex="1" parent="1">
          <mxGeometry x="460" y="387.5" width="20" height="20" as="geometry" />
        </mxCell>
        <mxCell id="DVobUFfQzRsEQ04qU32B-18" value="" style="rounded=0;whiteSpace=wrap;html=1;" vertex="1" parent="1">
          <mxGeometry x="460" y="257.5" width="20" height="20" as="geometry" />
        </mxCell>
        <mxCell id="DVobUFfQzRsEQ04qU32B-19" value="" style="endArrow=none;html=1;rounded=0;entryX=1;entryY=0.5;entryDx=0;entryDy=0;exitX=1;exitY=0.5;exitDx=0;exitDy=0;" edge="1" parent="1" source="DVobUFfQzRsEQ04qU32B-18" target="DVobUFfQzRsEQ04qU32B-3">
          <mxGeometry width="50" height="50" relative="1" as="geometry">
            <mxPoint x="690" y="537.5" as="sourcePoint" />
            <mxPoint x="740" y="487.5" as="targetPoint" />
            <Array as="points">
              <mxPoint x="825" y="267.5" />
              <mxPoint x="1015" y="267.5" />
            </Array>
          </mxGeometry>
        </mxCell>
        <mxCell id="DVobUFfQzRsEQ04qU32B-20" value="" style="endArrow=none;html=1;rounded=0;" edge="1" parent="1">
          <mxGeometry width="50" height="50" relative="1" as="geometry">
            <mxPoint x="635" y="352.16999999999996" as="sourcePoint" />
            <mxPoint x="645" y="342.16999999999996" as="targetPoint" />
          </mxGeometry>
        </mxCell>
        <mxCell id="DVobUFfQzRsEQ04qU32B-21" value="" style="endArrow=none;html=1;rounded=0;" edge="1" parent="1">
          <mxGeometry width="50" height="50" relative="1" as="geometry">
            <mxPoint x="1080" y="327.5" as="sourcePoint" />
            <mxPoint x="1090" y="317.5" as="targetPoint" />
          </mxGeometry>
        </mxCell>
        <mxCell id="DVobUFfQzRsEQ04qU32B-22" value="24&amp;nbsp;&lt;div&gt;CPT&lt;/div&gt;" style="text;html=1;align=center;verticalAlign=middle;whiteSpace=wrap;rounded=0;" vertex="1" parent="1">
          <mxGeometry x="1060" y="325" width="60" height="30" as="geometry" />
        </mxCell>
        <mxCell id="DVobUFfQzRsEQ04qU32B-23" value="" style="rounded=0;whiteSpace=wrap;html=1;" vertex="1" parent="1">
          <mxGeometry x="1210" y="235" width="30" height="30" as="geometry" />
        </mxCell>
        <mxCell id="DVobUFfQzRsEQ04qU32B-24" value="" style="triangle;whiteSpace=wrap;html=1;" vertex="1" parent="1">
          <mxGeometry x="1210" y="235" width="30" height="30" as="geometry" />
        </mxCell>
        <mxCell id="DVobUFfQzRsEQ04qU32B-25" value="" style="endArrow=none;html=1;rounded=0;entryX=0;entryY=0.5;entryDx=0;entryDy=0;exitX=0;exitY=0.5;exitDx=0;exitDy=0;" edge="1" parent="1" target="DVobUFfQzRsEQ04qU32B-24">
          <mxGeometry width="50" height="50" relative="1" as="geometry">
            <mxPoint x="1210" y="500" as="sourcePoint" />
            <mxPoint x="1120" y="445" as="targetPoint" />
            <Array as="points">
              <mxPoint x="1180" y="500" />
              <mxPoint x="1180" y="250" />
            </Array>
          </mxGeometry>
        </mxCell>
        <mxCell id="DVobUFfQzRsEQ04qU32B-26" value="" style="endArrow=none;html=1;rounded=0;entryX=1;entryY=0.5;entryDx=0;entryDy=0;" edge="1" parent="1" source="DVobUFfQzRsEQ04qU32B-28" target="DVobUFfQzRsEQ04qU32B-24">
          <mxGeometry width="50" height="50" relative="1" as="geometry">
            <mxPoint x="1260" y="250" as="sourcePoint" />
            <mxPoint x="1360" y="425" as="targetPoint" />
          </mxGeometry>
        </mxCell>
        <mxCell id="DVobUFfQzRsEQ04qU32B-27" value="" style="endArrow=none;html=1;rounded=0;entryX=1;entryY=0.5;entryDx=0;entryDy=0;" edge="1" parent="1" target="DVobUFfQzRsEQ04qU32B-28">
          <mxGeometry width="50" height="50" relative="1" as="geometry">
            <mxPoint x="1260" y="250" as="sourcePoint" />
            <mxPoint x="1240" y="250" as="targetPoint" />
          </mxGeometry>
        </mxCell>
        <mxCell id="DVobUFfQzRsEQ04qU32B-28" value="" style="rounded=0;whiteSpace=wrap;html=1;" vertex="1" parent="1">
          <mxGeometry x="1270" y="245" width="10" height="10" as="geometry" />
        </mxCell>
        <mxCell id="DVobUFfQzRsEQ04qU32B-29" value="" style="endArrow=none;html=1;rounded=0;" edge="1" parent="1">
          <mxGeometry width="50" height="50" relative="1" as="geometry">
            <mxPoint x="1250" y="255" as="sourcePoint" />
            <mxPoint x="1260" y="245" as="targetPoint" />
          </mxGeometry>
        </mxCell>
        <mxCell id="DVobUFfQzRsEQ04qU32B-30" value="8" style="text;html=1;align=center;verticalAlign=middle;whiteSpace=wrap;rounded=0;" vertex="1" parent="1">
          <mxGeometry x="1250" y="255" width="10" height="10" as="geometry" />
        </mxCell>
        <mxCell id="DVobUFfQzRsEQ04qU32B-31" value="" style="rounded=0;whiteSpace=wrap;html=1;" vertex="1" parent="1">
          <mxGeometry x="1210" y="285" width="30" height="30" as="geometry" />
        </mxCell>
        <mxCell id="DVobUFfQzRsEQ04qU32B-32" value="" style="triangle;whiteSpace=wrap;html=1;" vertex="1" parent="1">
          <mxGeometry x="1210" y="285" width="30" height="30" as="geometry" />
        </mxCell>
        <mxCell id="DVobUFfQzRsEQ04qU32B-33" value="" style="endArrow=none;html=1;rounded=0;entryX=1;entryY=0.5;entryDx=0;entryDy=0;" edge="1" parent="1" source="DVobUFfQzRsEQ04qU32B-35" target="DVobUFfQzRsEQ04qU32B-32">
          <mxGeometry width="50" height="50" relative="1" as="geometry">
            <mxPoint x="1260" y="300" as="sourcePoint" />
            <mxPoint x="1360" y="475" as="targetPoint" />
          </mxGeometry>
        </mxCell>
        <mxCell id="DVobUFfQzRsEQ04qU32B-34" value="" style="endArrow=none;html=1;rounded=0;entryX=1;entryY=0.5;entryDx=0;entryDy=0;" edge="1" parent="1" target="DVobUFfQzRsEQ04qU32B-35">
          <mxGeometry width="50" height="50" relative="1" as="geometry">
            <mxPoint x="1260" y="300" as="sourcePoint" />
            <mxPoint x="1240" y="300" as="targetPoint" />
          </mxGeometry>
        </mxCell>
        <mxCell id="DVobUFfQzRsEQ04qU32B-35" value="" style="rounded=0;whiteSpace=wrap;html=1;" vertex="1" parent="1">
          <mxGeometry x="1270" y="295" width="10" height="10" as="geometry" />
        </mxCell>
        <mxCell id="DVobUFfQzRsEQ04qU32B-36" value="" style="endArrow=none;html=1;rounded=0;" edge="1" parent="1">
          <mxGeometry width="50" height="50" relative="1" as="geometry">
            <mxPoint x="1250" y="305" as="sourcePoint" />
            <mxPoint x="1260" y="295" as="targetPoint" />
          </mxGeometry>
        </mxCell>
        <mxCell id="DVobUFfQzRsEQ04qU32B-37" value="8" style="text;html=1;align=center;verticalAlign=middle;whiteSpace=wrap;rounded=0;" vertex="1" parent="1">
          <mxGeometry x="1250" y="305" width="10" height="10" as="geometry" />
        </mxCell>
        <mxCell id="DVobUFfQzRsEQ04qU32B-38" value="" style="rounded=0;whiteSpace=wrap;html=1;" vertex="1" parent="1">
          <mxGeometry x="1210" y="335" width="30" height="30" as="geometry" />
        </mxCell>
        <mxCell id="DVobUFfQzRsEQ04qU32B-39" value="" style="triangle;whiteSpace=wrap;html=1;" vertex="1" parent="1">
          <mxGeometry x="1210" y="335" width="30" height="30" as="geometry" />
        </mxCell>
        <mxCell id="DVobUFfQzRsEQ04qU32B-40" value="" style="endArrow=none;html=1;rounded=0;entryX=1;entryY=0.5;entryDx=0;entryDy=0;" edge="1" parent="1" source="DVobUFfQzRsEQ04qU32B-42" target="DVobUFfQzRsEQ04qU32B-39">
          <mxGeometry width="50" height="50" relative="1" as="geometry">
            <mxPoint x="1260" y="350" as="sourcePoint" />
            <mxPoint x="1360" y="525" as="targetPoint" />
          </mxGeometry>
        </mxCell>
        <mxCell id="DVobUFfQzRsEQ04qU32B-41" value="" style="endArrow=none;html=1;rounded=0;entryX=1;entryY=0.5;entryDx=0;entryDy=0;" edge="1" parent="1" target="DVobUFfQzRsEQ04qU32B-42">
          <mxGeometry width="50" height="50" relative="1" as="geometry">
            <mxPoint x="1260" y="350" as="sourcePoint" />
            <mxPoint x="1240" y="350" as="targetPoint" />
          </mxGeometry>
        </mxCell>
        <mxCell id="DVobUFfQzRsEQ04qU32B-42" value="" style="rounded=0;whiteSpace=wrap;html=1;" vertex="1" parent="1">
          <mxGeometry x="1270" y="345" width="10" height="10" as="geometry" />
        </mxCell>
        <mxCell id="DVobUFfQzRsEQ04qU32B-43" value="" style="endArrow=none;html=1;rounded=0;" edge="1" parent="1">
          <mxGeometry width="50" height="50" relative="1" as="geometry">
            <mxPoint x="1250" y="355" as="sourcePoint" />
            <mxPoint x="1260" y="345" as="targetPoint" />
          </mxGeometry>
        </mxCell>
        <mxCell id="DVobUFfQzRsEQ04qU32B-44" value="8" style="text;html=1;align=center;verticalAlign=middle;whiteSpace=wrap;rounded=0;" vertex="1" parent="1">
          <mxGeometry x="1250" y="355" width="10" height="10" as="geometry" />
        </mxCell>
        <mxCell id="DVobUFfQzRsEQ04qU32B-45" value="" style="rounded=0;whiteSpace=wrap;html=1;" vertex="1" parent="1">
          <mxGeometry x="1210" y="385" width="30" height="30" as="geometry" />
        </mxCell>
        <mxCell id="DVobUFfQzRsEQ04qU32B-46" value="" style="triangle;whiteSpace=wrap;html=1;" vertex="1" parent="1">
          <mxGeometry x="1210" y="385" width="30" height="30" as="geometry" />
        </mxCell>
        <mxCell id="DVobUFfQzRsEQ04qU32B-47" value="" style="endArrow=none;html=1;rounded=0;entryX=1;entryY=0.5;entryDx=0;entryDy=0;" edge="1" parent="1" source="DVobUFfQzRsEQ04qU32B-49" target="DVobUFfQzRsEQ04qU32B-46">
          <mxGeometry width="50" height="50" relative="1" as="geometry">
            <mxPoint x="1260" y="400" as="sourcePoint" />
            <mxPoint x="1360" y="575" as="targetPoint" />
          </mxGeometry>
        </mxCell>
        <mxCell id="DVobUFfQzRsEQ04qU32B-48" value="" style="endArrow=none;html=1;rounded=0;entryX=1;entryY=0.5;entryDx=0;entryDy=0;" edge="1" parent="1" target="DVobUFfQzRsEQ04qU32B-49">
          <mxGeometry width="50" height="50" relative="1" as="geometry">
            <mxPoint x="1260" y="400" as="sourcePoint" />
            <mxPoint x="1240" y="400" as="targetPoint" />
          </mxGeometry>
        </mxCell>
        <mxCell id="DVobUFfQzRsEQ04qU32B-49" value="" style="rounded=0;whiteSpace=wrap;html=1;" vertex="1" parent="1">
          <mxGeometry x="1270" y="395" width="10" height="10" as="geometry" />
        </mxCell>
        <mxCell id="DVobUFfQzRsEQ04qU32B-50" value="" style="endArrow=none;html=1;rounded=0;" edge="1" parent="1">
          <mxGeometry width="50" height="50" relative="1" as="geometry">
            <mxPoint x="1250" y="405" as="sourcePoint" />
            <mxPoint x="1260" y="395" as="targetPoint" />
          </mxGeometry>
        </mxCell>
        <mxCell id="DVobUFfQzRsEQ04qU32B-51" value="8" style="text;html=1;align=center;verticalAlign=middle;whiteSpace=wrap;rounded=0;" vertex="1" parent="1">
          <mxGeometry x="1250" y="405" width="10" height="10" as="geometry" />
        </mxCell>
        <mxCell id="DVobUFfQzRsEQ04qU32B-52" value="" style="rounded=0;whiteSpace=wrap;html=1;" vertex="1" parent="1">
          <mxGeometry x="1210" y="435" width="30" height="30" as="geometry" />
        </mxCell>
        <mxCell id="DVobUFfQzRsEQ04qU32B-53" value="" style="triangle;whiteSpace=wrap;html=1;" vertex="1" parent="1">
          <mxGeometry x="1210" y="435" width="30" height="30" as="geometry" />
        </mxCell>
        <mxCell id="DVobUFfQzRsEQ04qU32B-54" value="" style="endArrow=none;html=1;rounded=0;entryX=1;entryY=0.5;entryDx=0;entryDy=0;" edge="1" parent="1" source="DVobUFfQzRsEQ04qU32B-56" target="DVobUFfQzRsEQ04qU32B-53">
          <mxGeometry width="50" height="50" relative="1" as="geometry">
            <mxPoint x="1260" y="450" as="sourcePoint" />
            <mxPoint x="1360" y="625" as="targetPoint" />
          </mxGeometry>
        </mxCell>
        <mxCell id="DVobUFfQzRsEQ04qU32B-55" value="" style="endArrow=none;html=1;rounded=0;entryX=1;entryY=0.5;entryDx=0;entryDy=0;" edge="1" parent="1" target="DVobUFfQzRsEQ04qU32B-56">
          <mxGeometry width="50" height="50" relative="1" as="geometry">
            <mxPoint x="1260" y="450" as="sourcePoint" />
            <mxPoint x="1240" y="450" as="targetPoint" />
          </mxGeometry>
        </mxCell>
        <mxCell id="DVobUFfQzRsEQ04qU32B-56" value="" style="rounded=0;whiteSpace=wrap;html=1;" vertex="1" parent="1">
          <mxGeometry x="1270" y="445" width="10" height="10" as="geometry" />
        </mxCell>
        <mxCell id="DVobUFfQzRsEQ04qU32B-57" value="" style="endArrow=none;html=1;rounded=0;" edge="1" parent="1">
          <mxGeometry width="50" height="50" relative="1" as="geometry">
            <mxPoint x="1250" y="455" as="sourcePoint" />
            <mxPoint x="1260" y="445" as="targetPoint" />
          </mxGeometry>
        </mxCell>
        <mxCell id="DVobUFfQzRsEQ04qU32B-58" value="8" style="text;html=1;align=center;verticalAlign=middle;whiteSpace=wrap;rounded=0;" vertex="1" parent="1">
          <mxGeometry x="1250" y="455" width="10" height="10" as="geometry" />
        </mxCell>
        <mxCell id="DVobUFfQzRsEQ04qU32B-59" value="" style="rounded=0;whiteSpace=wrap;html=1;" vertex="1" parent="1">
          <mxGeometry x="1210" y="485" width="30" height="30" as="geometry" />
        </mxCell>
        <mxCell id="DVobUFfQzRsEQ04qU32B-60" value="" style="triangle;whiteSpace=wrap;html=1;" vertex="1" parent="1">
          <mxGeometry x="1210" y="485" width="30" height="30" as="geometry" />
        </mxCell>
        <mxCell id="DVobUFfQzRsEQ04qU32B-61" value="" style="endArrow=none;html=1;rounded=0;entryX=1;entryY=0.5;entryDx=0;entryDy=0;" edge="1" parent="1" source="DVobUFfQzRsEQ04qU32B-63" target="DVobUFfQzRsEQ04qU32B-60">
          <mxGeometry width="50" height="50" relative="1" as="geometry">
            <mxPoint x="1260" y="500" as="sourcePoint" />
            <mxPoint x="1360" y="675" as="targetPoint" />
          </mxGeometry>
        </mxCell>
        <mxCell id="DVobUFfQzRsEQ04qU32B-62" value="" style="endArrow=none;html=1;rounded=0;entryX=1;entryY=0.5;entryDx=0;entryDy=0;" edge="1" parent="1" target="DVobUFfQzRsEQ04qU32B-63">
          <mxGeometry width="50" height="50" relative="1" as="geometry">
            <mxPoint x="1260" y="500" as="sourcePoint" />
            <mxPoint x="1240" y="500" as="targetPoint" />
          </mxGeometry>
        </mxCell>
        <mxCell id="DVobUFfQzRsEQ04qU32B-63" value="" style="rounded=0;whiteSpace=wrap;html=1;" vertex="1" parent="1">
          <mxGeometry x="1270" y="495" width="10" height="10" as="geometry" />
        </mxCell>
        <mxCell id="DVobUFfQzRsEQ04qU32B-64" value="" style="endArrow=none;html=1;rounded=0;" edge="1" parent="1">
          <mxGeometry width="50" height="50" relative="1" as="geometry">
            <mxPoint x="1250" y="505" as="sourcePoint" />
            <mxPoint x="1260" y="495" as="targetPoint" />
          </mxGeometry>
        </mxCell>
        <mxCell id="DVobUFfQzRsEQ04qU32B-65" value="8" style="text;html=1;align=center;verticalAlign=middle;whiteSpace=wrap;rounded=0;" vertex="1" parent="1">
          <mxGeometry x="1250" y="505" width="10" height="10" as="geometry" />
        </mxCell>
        <mxCell id="DVobUFfQzRsEQ04qU32B-66" value="" style="endArrow=none;html=1;rounded=0;entryX=0;entryY=0.5;entryDx=0;entryDy=0;" edge="1" parent="1" target="DVobUFfQzRsEQ04qU32B-53">
          <mxGeometry width="50" height="50" relative="1" as="geometry">
            <mxPoint x="1180" y="450" as="sourcePoint" />
            <mxPoint x="1130" y="495" as="targetPoint" />
          </mxGeometry>
        </mxCell>
        <mxCell id="DVobUFfQzRsEQ04qU32B-67" value="" style="endArrow=none;html=1;rounded=0;entryX=0;entryY=0.5;entryDx=0;entryDy=0;" edge="1" parent="1">
          <mxGeometry width="50" height="50" relative="1" as="geometry">
            <mxPoint x="1180" y="399.67" as="sourcePoint" />
            <mxPoint x="1210" y="399.67" as="targetPoint" />
          </mxGeometry>
        </mxCell>
        <mxCell id="DVobUFfQzRsEQ04qU32B-68" value="" style="endArrow=none;html=1;rounded=0;entryX=0;entryY=0.5;entryDx=0;entryDy=0;" edge="1" parent="1" source="DVobUFfQzRsEQ04qU32B-70">
          <mxGeometry width="50" height="50" relative="1" as="geometry">
            <mxPoint x="1180" y="349.67" as="sourcePoint" />
            <mxPoint x="1210" y="349.67" as="targetPoint" />
          </mxGeometry>
        </mxCell>
        <mxCell id="DVobUFfQzRsEQ04qU32B-69" value="" style="endArrow=none;html=1;rounded=0;entryX=0;entryY=0.5;entryDx=0;entryDy=0;" edge="1" parent="1" source="DVobUFfQzRsEQ04qU32B-102">
          <mxGeometry width="50" height="50" relative="1" as="geometry">
            <mxPoint x="1180" y="299.67" as="sourcePoint" />
            <mxPoint x="1210" y="299.67" as="targetPoint" />
          </mxGeometry>
        </mxCell>
        <mxCell id="DVobUFfQzRsEQ04qU32B-70" value="" style="shape=waypoint;sketch=0;fillStyle=solid;size=6;pointerEvents=1;points=[];fillColor=none;resizable=0;rotatable=0;perimeter=centerPerimeter;snapToPoint=1;" vertex="1" parent="1">
          <mxGeometry x="1170" y="339.6700000000001" width="20" height="20" as="geometry" />
        </mxCell>
        <mxCell id="DVobUFfQzRsEQ04qU32B-71" value="" style="shape=waypoint;sketch=0;fillStyle=solid;size=6;pointerEvents=1;points=[];fillColor=none;resizable=0;rotatable=0;perimeter=centerPerimeter;snapToPoint=1;" vertex="1" parent="1">
          <mxGeometry x="1170" y="390" width="20" height="20" as="geometry" />
        </mxCell>
        <mxCell id="DVobUFfQzRsEQ04qU32B-72" value="" style="shape=waypoint;sketch=0;fillStyle=solid;size=6;pointerEvents=1;points=[];fillColor=none;resizable=0;rotatable=0;perimeter=centerPerimeter;snapToPoint=1;" vertex="1" parent="1">
          <mxGeometry x="1170" y="440" width="20" height="20" as="geometry" />
        </mxCell>
        <mxCell id="DVobUFfQzRsEQ04qU32B-73" value="CK" style="text;html=1;align=center;verticalAlign=middle;whiteSpace=wrap;rounded=0;" vertex="1" parent="1">
          <mxGeometry x="410" y="382.5" width="60" height="30" as="geometry" />
        </mxCell>
        <mxCell id="DVobUFfQzRsEQ04qU32B-74" value="RST" style="text;html=1;align=center;verticalAlign=middle;whiteSpace=wrap;rounded=0;" vertex="1" parent="1">
          <mxGeometry x="410" y="252.5" width="60" height="30" as="geometry" />
        </mxCell>
        <mxCell id="DVobUFfQzRsEQ04qU32B-75" value="Hex0" style="text;html=1;align=center;verticalAlign=middle;whiteSpace=wrap;rounded=0;" vertex="1" parent="1">
          <mxGeometry x="1280" y="220" width="30" height="30" as="geometry" />
        </mxCell>
        <mxCell id="DVobUFfQzRsEQ04qU32B-76" value="Hex1" style="text;html=1;align=center;verticalAlign=middle;whiteSpace=wrap;rounded=0;" vertex="1" parent="1">
          <mxGeometry x="1280" y="265" width="30" height="30" as="geometry" />
        </mxCell>
        <mxCell id="DVobUFfQzRsEQ04qU32B-77" value="Hex2" style="text;html=1;align=center;verticalAlign=middle;whiteSpace=wrap;rounded=0;" vertex="1" parent="1">
          <mxGeometry x="1280" y="320" width="30" height="30" as="geometry" />
        </mxCell>
        <mxCell id="DVobUFfQzRsEQ04qU32B-78" value="Hex3" style="text;html=1;align=center;verticalAlign=middle;whiteSpace=wrap;rounded=0;" vertex="1" parent="1">
          <mxGeometry x="1280" y="365" width="30" height="30" as="geometry" />
        </mxCell>
        <mxCell id="DVobUFfQzRsEQ04qU32B-79" value="Hex4" style="text;html=1;align=center;verticalAlign=middle;whiteSpace=wrap;rounded=0;" vertex="1" parent="1">
          <mxGeometry x="1280" y="415" width="30" height="30" as="geometry" />
        </mxCell>
        <mxCell id="DVobUFfQzRsEQ04qU32B-80" value="Hex5" style="text;html=1;align=center;verticalAlign=middle;whiteSpace=wrap;rounded=0;" vertex="1" parent="1">
          <mxGeometry x="1280" y="465" width="30" height="30" as="geometry" />
        </mxCell>
        <mxCell id="DVobUFfQzRsEQ04qU32B-81" value="" style="endArrow=none;html=1;rounded=0;exitX=1;exitY=0.75;exitDx=0;exitDy=0;entryX=0.451;entryY=1.098;entryDx=0;entryDy=0;entryPerimeter=0;" edge="1" parent="1" source="DVobUFfQzRsEQ04qU32B-63" target="DVobUFfQzRsEQ04qU32B-12">
          <mxGeometry width="50" height="50" relative="1" as="geometry">
            <mxPoint x="1390" y="525" as="sourcePoint" />
            <mxPoint x="1440" y="475" as="targetPoint" />
            <Array as="points">
              <mxPoint x="1344" y="500" />
            </Array>
          </mxGeometry>
        </mxCell>
        <mxCell id="DVobUFfQzRsEQ04qU32B-82" value="" style="endArrow=none;html=1;rounded=0;exitX=1;exitY=0.5;exitDx=0;exitDy=0;entryX=0.54;entryY=1.065;entryDx=0;entryDy=0;entryPerimeter=0;" edge="1" parent="1" source="DVobUFfQzRsEQ04qU32B-28" target="DVobUFfQzRsEQ04qU32B-14">
          <mxGeometry width="50" height="50" relative="1" as="geometry">
            <mxPoint x="1380" y="365" as="sourcePoint" />
            <mxPoint x="1470" y="295" as="targetPoint" />
            <Array as="points">
              <mxPoint x="1320" y="250" />
              <mxPoint x="1320" y="295" />
              <mxPoint x="1476" y="295" />
            </Array>
          </mxGeometry>
        </mxCell>
        <mxCell id="DVobUFfQzRsEQ04qU32B-83" value="" style="endArrow=none;html=1;rounded=0;exitX=1;exitY=0.5;exitDx=0;exitDy=0;entryX=0.418;entryY=1.056;entryDx=0;entryDy=0;entryPerimeter=0;" edge="1" parent="1" source="DVobUFfQzRsEQ04qU32B-35" target="DVobUFfQzRsEQ04qU32B-13">
          <mxGeometry width="50" height="50" relative="1" as="geometry">
            <mxPoint x="1440" y="365" as="sourcePoint" />
            <mxPoint x="1490" y="315" as="targetPoint" />
            <Array as="points">
              <mxPoint x="1310" y="300" />
              <mxPoint x="1310" y="315" />
              <mxPoint x="1433" y="315" />
            </Array>
          </mxGeometry>
        </mxCell>
        <mxCell id="DVobUFfQzRsEQ04qU32B-84" value="" style="rounded=0;whiteSpace=wrap;html=1;strokeColor=#000000;" vertex="1" parent="1">
          <mxGeometry x="460" y="437.5" width="20" height="20" as="geometry" />
        </mxCell>
        <mxCell id="DVobUFfQzRsEQ04qU32B-85" value="PAUSE" style="text;html=1;align=center;verticalAlign=middle;whiteSpace=wrap;rounded=0;fontColor=#000000;" vertex="1" parent="1">
          <mxGeometry x="410" y="432.5" width="60" height="30" as="geometry" />
        </mxCell>
        <mxCell id="DVobUFfQzRsEQ04qU32B-86" value="" style="group" vertex="1" connectable="0" parent="1">
          <mxGeometry x="660" y="287.5" width="50" height="90" as="geometry" />
        </mxCell>
        <mxCell id="DVobUFfQzRsEQ04qU32B-87" value="" style="rounded=0;whiteSpace=wrap;html=1;" vertex="1" parent="DVobUFfQzRsEQ04qU32B-86">
          <mxGeometry width="50" height="90" as="geometry" />
        </mxCell>
        <mxCell id="DVobUFfQzRsEQ04qU32B-88" value="" style="triangle;whiteSpace=wrap;html=1;" vertex="1" parent="DVobUFfQzRsEQ04qU32B-86">
          <mxGeometry width="30" height="90" as="geometry" />
        </mxCell>
        <mxCell id="DVobUFfQzRsEQ04qU32B-89" value="1&lt;div&gt;&lt;br&gt;&lt;/div&gt;&lt;div&gt;&lt;br&gt;&lt;/div&gt;&lt;div&gt;&lt;br&gt;&lt;/div&gt;&lt;div&gt;0&lt;/div&gt;" style="text;html=1;align=center;verticalAlign=middle;whiteSpace=wrap;rounded=0;" vertex="1" parent="DVobUFfQzRsEQ04qU32B-86">
          <mxGeometry x="30" y="30" width="10" height="30" as="geometry" />
        </mxCell>
        <mxCell id="DVobUFfQzRsEQ04qU32B-90" value="" style="endArrow=none;html=1;rounded=0;exitX=1;exitY=0.5;exitDx=0;exitDy=0;entryX=0.5;entryY=1;entryDx=0;entryDy=0;" edge="1" parent="1" source="DVobUFfQzRsEQ04qU32B-84" target="DVobUFfQzRsEQ04qU32B-87">
          <mxGeometry width="50" height="50" relative="1" as="geometry">
            <mxPoint x="630" y="487.5" as="sourcePoint" />
            <mxPoint x="680" y="437.5" as="targetPoint" />
            <Array as="points">
              <mxPoint x="685" y="447.5" />
            </Array>
          </mxGeometry>
        </mxCell>
        <mxCell id="DVobUFfQzRsEQ04qU32B-91" value="" style="endArrow=none;html=1;rounded=0;" edge="1" parent="1" source="DVobUFfQzRsEQ04qU32B-108">
          <mxGeometry width="50" height="50" relative="1" as="geometry">
            <mxPoint x="1070" y="322.23" as="sourcePoint" />
            <mxPoint x="1180" y="322.5" as="targetPoint" />
            <Array as="points" />
          </mxGeometry>
        </mxCell>
        <mxCell id="DVobUFfQzRsEQ04qU32B-92" value="" style="endArrow=none;html=1;rounded=0;" edge="1" parent="1" source="DVobUFfQzRsEQ04qU32B-93">
          <mxGeometry width="50" height="50" relative="1" as="geometry">
            <mxPoint x="640" y="277.5" as="sourcePoint" />
            <mxPoint x="660" y="307.5" as="targetPoint" />
            <Array as="points">
              <mxPoint x="640" y="307.5" />
            </Array>
          </mxGeometry>
        </mxCell>
        <mxCell id="DVobUFfQzRsEQ04qU32B-93" value="" style="shape=waypoint;sketch=0;fillStyle=solid;size=6;pointerEvents=1;points=[];fillColor=none;resizable=0;rotatable=0;perimeter=centerPerimeter;snapToPoint=1;" vertex="1" parent="1">
          <mxGeometry x="630" y="265" width="20" height="20" as="geometry" />
        </mxCell>
        <mxCell id="DVobUFfQzRsEQ04qU32B-94" value="" style="endArrow=none;html=1;rounded=0;" edge="1" parent="1">
          <mxGeometry width="50" height="50" relative="1" as="geometry">
            <mxPoint x="560" y="312.5" as="sourcePoint" />
            <mxPoint x="1140" y="322.5" as="targetPoint" />
            <Array as="points">
              <mxPoint x="510" y="312.5" />
              <mxPoint x="510" y="275" />
              <mxPoint x="720" y="275" />
              <mxPoint x="910" y="275" />
              <mxPoint x="980" y="275" />
              <mxPoint x="1080" y="275.5" />
              <mxPoint x="1140" y="275.5" />
            </Array>
          </mxGeometry>
        </mxCell>
        <mxCell id="DVobUFfQzRsEQ04qU32B-95" value="" style="endArrow=none;html=1;rounded=0;exitX=1;exitY=0.5;exitDx=0;exitDy=0;" edge="1" parent="1" source="DVobUFfQzRsEQ04qU32B-1">
          <mxGeometry width="50" height="50" relative="1" as="geometry">
            <mxPoint x="740" y="587.5" as="sourcePoint" />
            <mxPoint x="660" y="357.5" as="targetPoint" />
            <Array as="points">
              <mxPoint x="640" y="332.5" />
              <mxPoint x="640" y="357.5" />
            </Array>
          </mxGeometry>
        </mxCell>
        <mxCell id="DVobUFfQzRsEQ04qU32B-96" value="ADD" style="text;html=1;align=center;verticalAlign=middle;whiteSpace=wrap;rounded=0;" vertex="1" parent="1">
          <mxGeometry x="620" y="317.5" width="20" height="10" as="geometry" />
        </mxCell>
        <mxCell id="DVobUFfQzRsEQ04qU32B-97" value="24" style="text;html=1;align=center;verticalAlign=middle;whiteSpace=wrap;rounded=0;" vertex="1" parent="1">
          <mxGeometry x="640" y="352.5" width="10" height="30" as="geometry" />
        </mxCell>
        <mxCell id="DVobUFfQzRsEQ04qU32B-98" value="" style="endArrow=none;html=1;rounded=0;" edge="1" parent="1">
          <mxGeometry width="50" height="50" relative="1" as="geometry">
            <mxPoint x="730" y="337.5" as="sourcePoint" />
            <mxPoint x="740" y="327.5" as="targetPoint" />
          </mxGeometry>
        </mxCell>
        <mxCell id="DVobUFfQzRsEQ04qU32B-99" value="MUX&lt;div&gt;&lt;br&gt;&lt;/div&gt;&lt;div&gt;&lt;br&gt;&lt;/div&gt;&lt;div&gt;24&lt;/div&gt;" style="text;html=1;align=center;verticalAlign=middle;whiteSpace=wrap;rounded=0;" vertex="1" parent="1">
          <mxGeometry x="730" y="325" width="10" height="20" as="geometry" />
        </mxCell>
        <mxCell id="DVobUFfQzRsEQ04qU32B-100" value="" style="endArrow=none;html=1;rounded=0;" edge="1" parent="1">
          <mxGeometry width="50" height="50" relative="1" as="geometry">
            <mxPoint x="1100" y="280" as="sourcePoint" />
            <mxPoint x="1110" y="270" as="targetPoint" />
          </mxGeometry>
        </mxCell>
        <mxCell id="DVobUFfQzRsEQ04qU32B-101" value="" style="endArrow=none;html=1;rounded=0;entryDx=0;entryDy=0;" edge="1" parent="1" target="DVobUFfQzRsEQ04qU32B-102">
          <mxGeometry width="50" height="50" relative="1" as="geometry">
            <mxPoint x="1180" y="299.67" as="sourcePoint" />
            <mxPoint x="1210" y="299.67" as="targetPoint" />
          </mxGeometry>
        </mxCell>
        <mxCell id="DVobUFfQzRsEQ04qU32B-102" value="" style="shape=waypoint;sketch=0;fillStyle=solid;size=6;pointerEvents=1;points=[];fillColor=none;resizable=0;rotatable=0;perimeter=centerPerimeter;snapToPoint=1;" vertex="1" parent="1">
          <mxGeometry x="1170" y="290" width="20" height="20" as="geometry" />
        </mxCell>
        <mxCell id="DVobUFfQzRsEQ04qU32B-103" value="24" style="text;html=1;align=center;verticalAlign=middle;whiteSpace=wrap;rounded=0;" vertex="1" parent="1">
          <mxGeometry x="1080" y="250" width="50" height="30" as="geometry" />
        </mxCell>
        <mxCell id="DVobUFfQzRsEQ04qU32B-104" value="" style="group" vertex="1" connectable="0" parent="1">
          <mxGeometry x="894" y="282.5" width="60" height="90" as="geometry" />
        </mxCell>
        <mxCell id="DVobUFfQzRsEQ04qU32B-105" value="" style="rounded=0;whiteSpace=wrap;html=1;" vertex="1" parent="DVobUFfQzRsEQ04qU32B-104">
          <mxGeometry width="50" height="90" as="geometry" />
        </mxCell>
        <mxCell id="DVobUFfQzRsEQ04qU32B-106" value="" style="triangle;whiteSpace=wrap;html=1;" vertex="1" parent="DVobUFfQzRsEQ04qU32B-104">
          <mxGeometry width="30" height="90" as="geometry" />
        </mxCell>
        <mxCell id="DVobUFfQzRsEQ04qU32B-107" value="&lt;span&gt;1&lt;/span&gt;&lt;div&gt;&lt;span&gt;&lt;br&gt;&lt;/span&gt;&lt;/div&gt;&lt;div&gt;&lt;span&gt;&lt;br&gt;&lt;/span&gt;&lt;/div&gt;&lt;div&gt;&lt;span&gt;0&lt;/span&gt;&lt;/div&gt;" style="text;html=1;align=center;verticalAlign=middle;whiteSpace=wrap;rounded=0;fontSize=13;" vertex="1" parent="DVobUFfQzRsEQ04qU32B-104">
          <mxGeometry x="25" y="30" width="10" height="30" as="geometry" />
        </mxCell>
        <mxCell id="DVobUFfQzRsEQ04qU32B-108" value="" style="shape=waypoint;sketch=0;fillStyle=solid;size=6;pointerEvents=1;points=[];fillColor=none;resizable=0;rotatable=0;perimeter=centerPerimeter;snapToPoint=1;" vertex="1" parent="1">
          <mxGeometry x="1170" y="312.5" width="20" height="20" as="geometry" />
        </mxCell>
        <mxCell id="DVobUFfQzRsEQ04qU32B-109" value="&lt;font style=&quot;font-size: 7px;&quot;&gt;&quot;000...00&quot;&lt;/font&gt;" style="text;html=1;align=center;verticalAlign=middle;whiteSpace=wrap;rounded=0;" vertex="1" parent="1">
          <mxGeometry x="850" y="295" width="30" height="12.5" as="geometry" />
        </mxCell>
        <mxCell id="DVobUFfQzRsEQ04qU32B-110" value="" style="endArrow=none;html=1;rounded=0;entryX=0.554;entryY=0.007;entryDx=0;entryDy=0;entryPerimeter=0;exitX=0.987;exitY=0.555;exitDx=0;exitDy=0;exitPerimeter=0;" edge="1" parent="1" source="DVobUFfQzRsEQ04qU32B-105" target="DVobUFfQzRsEQ04qU32B-3">
          <mxGeometry width="50" height="50" relative="1" as="geometry">
            <mxPoint x="970" y="332.5" as="sourcePoint" />
            <mxPoint x="944" y="332.5" as="targetPoint" />
            <Array as="points" />
          </mxGeometry>
        </mxCell>
        <mxCell id="DVobUFfQzRsEQ04qU32B-111" value="" style="endArrow=none;html=1;rounded=0;entryX=0.375;entryY=0.736;entryDx=0;entryDy=0;entryPerimeter=0;" edge="1" parent="1" source="DVobUFfQzRsEQ04qU32B-114" target="DVobUFfQzRsEQ04qU32B-108">
          <mxGeometry width="50" height="50" relative="1" as="geometry">
            <mxPoint x="1040" y="322.5" as="sourcePoint" />
            <mxPoint x="1120" y="337.5" as="targetPoint" />
            <Array as="points" />
          </mxGeometry>
        </mxCell>
        <mxCell id="DVobUFfQzRsEQ04qU32B-112" value="" style="endArrow=none;html=1;rounded=0;exitX=1;exitY=0.5;exitDx=0;exitDy=0;entryX=-0.009;entryY=0.559;entryDx=0;entryDy=0;entryPerimeter=0;" edge="1" parent="1" source="DVobUFfQzRsEQ04qU32B-87" target="DVobUFfQzRsEQ04qU32B-106">
          <mxGeometry width="50" height="50" relative="1" as="geometry">
            <mxPoint x="830" y="362.5" as="sourcePoint" />
            <mxPoint x="892" y="332.5" as="targetPoint" />
            <Array as="points">
              <mxPoint x="750" y="332.5" />
            </Array>
          </mxGeometry>
        </mxCell>
        <mxCell id="DVobUFfQzRsEQ04qU32B-113" value="" style="endArrow=none;html=1;rounded=0;entryDx=0;entryDy=0;entryPerimeter=0;" edge="1" parent="1" target="DVobUFfQzRsEQ04qU32B-114">
          <mxGeometry width="50" height="50" relative="1" as="geometry">
            <mxPoint x="1040" y="322.5" as="sourcePoint" />
            <mxPoint x="1180" y="322.5" as="targetPoint" />
            <Array as="points" />
          </mxGeometry>
        </mxCell>
        <mxCell id="DVobUFfQzRsEQ04qU32B-114" value="" style="shape=waypoint;sketch=0;fillStyle=solid;size=6;pointerEvents=1;points=[];fillColor=none;resizable=0;rotatable=0;perimeter=centerPerimeter;snapToPoint=1;" vertex="1" parent="1">
          <mxGeometry x="1130" y="312.5" width="20" height="20" as="geometry" />
        </mxCell>
        <mxCell id="DVobUFfQzRsEQ04qU32B-115" value="" style="endArrow=none;html=1;rounded=0;entryX=-0.025;entryY=0.221;entryDx=0;entryDy=0;entryPerimeter=0;" edge="1" parent="1" target="DVobUFfQzRsEQ04qU32B-106">
          <mxGeometry width="50" height="50" relative="1" as="geometry">
            <mxPoint x="880" y="302.5" as="sourcePoint" />
            <mxPoint x="860" y="312.5" as="targetPoint" />
          </mxGeometry>
        </mxCell>
        <mxCell id="DVobUFfQzRsEQ04qU32B-116" value="=" style="rounded=0;whiteSpace=wrap;html=1;" vertex="1" parent="1">
          <mxGeometry x="799" y="352.5" width="30" height="40" as="geometry" />
        </mxCell>
        <mxCell id="DVobUFfQzRsEQ04qU32B-117" value="" style="endArrow=none;html=1;rounded=0;entryX=0;entryY=0.25;entryDx=0;entryDy=0;" edge="1" parent="1" target="DVobUFfQzRsEQ04qU32B-116">
          <mxGeometry width="50" height="50" relative="1" as="geometry">
            <mxPoint x="760" y="332.5" as="sourcePoint" />
            <mxPoint x="820" y="342.5" as="targetPoint" />
            <Array as="points">
              <mxPoint x="760" y="362.5" />
            </Array>
          </mxGeometry>
        </mxCell>
        <mxCell id="DVobUFfQzRsEQ04qU32B-118" value="" style="endArrow=none;html=1;rounded=0;entryX=0;entryY=0.75;entryDx=0;entryDy=0;" edge="1" parent="1" target="DVobUFfQzRsEQ04qU32B-116">
          <mxGeometry width="50" height="50" relative="1" as="geometry">
            <mxPoint x="780" y="382.5" as="sourcePoint" />
            <mxPoint x="820" y="342.5" as="targetPoint" />
          </mxGeometry>
        </mxCell>
        <mxCell id="DVobUFfQzRsEQ04qU32B-119" value="&quot;00...1000000&quot;" style="text;html=1;align=center;verticalAlign=middle;whiteSpace=wrap;rounded=0;fontSize=10;" vertex="1" parent="1">
          <mxGeometry x="720" y="365" width="60" height="30" as="geometry" />
        </mxCell>
        <mxCell id="DVobUFfQzRsEQ04qU32B-120" value="" style="endArrow=none;html=1;rounded=0;entryX=0.719;entryY=1;entryDx=0;entryDy=0;exitX=1;exitY=0.5;exitDx=0;exitDy=0;entryPerimeter=0;" edge="1" parent="1" source="DVobUFfQzRsEQ04qU32B-116" target="DVobUFfQzRsEQ04qU32B-105">
          <mxGeometry width="50" height="50" relative="1" as="geometry">
            <mxPoint x="810" y="452.5" as="sourcePoint" />
            <mxPoint x="860" y="402.5" as="targetPoint" />
            <Array as="points">
              <mxPoint x="880" y="372.5" />
              <mxPoint x="880" y="382.5" />
              <mxPoint x="930" y="382.5" />
            </Array>
          </mxGeometry>
        </mxCell>
        <mxCell id="DVobUFfQzRsEQ04qU32B-121" value="COMP&lt;div&gt;&lt;br&gt;&lt;/div&gt;&lt;div&gt;1&lt;/div&gt;" style="text;html=1;align=center;verticalAlign=middle;whiteSpace=wrap;rounded=0;" vertex="1" parent="1">
          <mxGeometry x="850" y="365" width="10" height="20" as="geometry" />
        </mxCell>
        <mxCell id="DVobUFfQzRsEQ04qU32B-122" value="" style="endArrow=none;html=1;rounded=0;" edge="1" parent="1">
          <mxGeometry width="50" height="50" relative="1" as="geometry">
            <mxPoint x="850" y="377.5" as="sourcePoint" />
            <mxPoint x="860" y="367.5" as="targetPoint" />
          </mxGeometry>
        </mxCell>
        <mxCell id="DVobUFfQzRsEQ04qU32B-123" value="" style="endArrow=none;html=1;rounded=0;" edge="1" parent="1">
          <mxGeometry width="50" height="50" relative="1" as="geometry">
            <mxPoint x="960" y="337.5" as="sourcePoint" />
            <mxPoint x="970" y="327.5" as="targetPoint" />
          </mxGeometry>
        </mxCell>
        <mxCell id="DVobUFfQzRsEQ04qU32B-124" value="MUX2&lt;div&gt;&lt;br&gt;&lt;/div&gt;&lt;div&gt;&lt;br&gt;&lt;/div&gt;&lt;div&gt;24&lt;/div&gt;" style="text;html=1;align=center;verticalAlign=middle;whiteSpace=wrap;rounded=0;" vertex="1" parent="1">
          <mxGeometry x="960" y="327.5" width="10" height="20" as="geometry" />
        </mxCell>
      </root>
    </mxGraphModel>
  </diagram>
</mxfile>
